function data()
return { 
		subMeshes = {
			{ 
				indices = { 
					normal = { 
						count = 69216,
						offset = 767756,
					},
					position = { 
						count = 69216,
						offset = 629324,
					},
					tangent = { 
						count = 69216,
						offset = 836972,
					},
					uv0 = { 
						count = 69216,
						offset = 698540,
					},
				},
			},
		},
		vertexAttr = { 
			normal = { 
				count = 207648,
				numComp = 3,
				offset = 144812,
			},
			position = { 
				count = 89820,
				numComp = 3,
				offset = 0,
			},
			tangent = { 
				count = 276864,
				numComp = 4,
				offset = 352460,
			},
			uv0 = { 
				count = 54992,
				numComp = 2,
				offset = 89820,
			},
		},
	}
end