function data()
return { 
		subMeshes = {
			{ 
				indices = { 
					normal = { 
						count = 51000,
						offset = 551408,
					},
					position = { 
						count = 51000,
						offset = 449408,
					},
					tangent = { 
						count = 51000,
						offset = 602408,
					},
					uv0 = { 
						count = 51000,
						offset = 500408,
					},
				},
			},
		},
		vertexAttr = { 
			normal = { 
				count = 153000,
				numComp = 3,
				offset = 92408,
			},
			position = { 
				count = 50112,
				numComp = 3,
				offset = 0,
			},
			tangent = { 
				count = 204000,
				numComp = 4,
				offset = 245408,
			},
			uv0 = { 
				count = 42296,
				numComp = 2,
				offset = 50112,
			},
		},
	}
end