function data()
return { 
		subMeshes = {
			{ 
				indices = { 
					normal = { 
						count = 138432,
						offset = 1484208,
					},
					position = { 
						count = 138432,
						offset = 1207344,
					},
					tangent = { 
						count = 138432,
						offset = 1622640,
					},
					uv0 = { 
						count = 138432,
						offset = 1345776,
					},
				},
			},
		},
		vertexAttr = { 
			normal = { 
				count = 415296,
				numComp = 3,
				offset = 238320,
			},
			position = { 
				count = 141240,
				numComp = 3,
				offset = 0,
			},
			tangent = { 
				count = 553728,
				numComp = 4,
				offset = 653616,
			},
			uv0 = { 
				count = 97080,
				numComp = 2,
				offset = 141240,
			},
		},
	}
end