function data()
return {
	subMeshes = {
		{
			indices = {
				normal = {
					count = 19116,
					offset = 201652,
				},
				position = {
					count = 19116,
					offset = 163420,
				},
				tangent = {
					count = 19116,
					offset = 220768,
				},
				uv0 = {
					count = 19116,
					offset = 182536,
				},
			},
		},
	},
	vertexAttr = {
		normal = {
			count = 57348,
			numComp = 3,
			offset = 29608,
		},
		position = {
			count = 11280,
			numComp = 3,
			offset = 0,
		},
		tangent = {
			count = 76464,
			numComp = 4,
			offset = 86956,
		},
		uv0 = {
			count = 18328,
			numComp = 2,
			offset = 11280,
		},
	},
}
end
