function data()
return {
	subMeshes = {
		{
			indices = {
				normal = {
					count = 11472,
					offset = 115552,
				},
				position = {
					count = 11472,
					offset = 92608,
				},
				tangent = {
					count = 11472,
					offset = 127024,
				},
				uv0 = {
					count = 11472,
					offset = 104080,
				},
			},
		},
	},
	vertexAttr = {
		normal = {
			count = 34416,
			numComp = 3,
			offset = 12304,
		},
		position = {
			count = 5832,
			numComp = 3,
			offset = 0,
		},
		tangent = {
			count = 45888,
			numComp = 4,
			offset = 46720,
		},
		uv0 = {
			count = 6472,
			numComp = 2,
			offset = 5832,
		},
	},
}
end
