function data()
return {
	subMeshes = {
		{
			indices = {
				normal = {
					count = 254088,
					offset = 2751208,
				},
				position = {
					count = 254088,
					offset = 2243032,
				},
				tangent = {
					count = 254088,
					offset = 3005296,
				},
				uv0 = {
					count = 254088,
					offset = 2497120,
				},
			},
		},
	},
	vertexAttr = {
		normal = {
			count = 762264,
			numComp = 3,
			offset = 464416,
		},
		position = {
			count = 266880,
			numComp = 3,
			offset = 0,
		},
		tangent = {
			count = 1016352,
			numComp = 4,
			offset = 1226680,
		},
		uv0 = {
			count = 197536,
			numComp = 2,
			offset = 266880,
		},
	},
}
end
