function data()
return {
	subMeshes = {
		{
			indices = {
				normal = {
					count = 184740,
					offset = 2025372,
				},
				position = {
					count = 184740,
					offset = 1655892,
				},
				tangent = {
					count = 184740,
					offset = 2210112,
				},
				uv0 = {
					count = 184740,
					offset = 1840632,
				},
			},
		},
	},
	vertexAttr = {
		normal = {
			count = 554220,
			numComp = 3,
			offset = 362712,
		},
		position = {
			count = 208920,
			numComp = 3,
			offset = 0,
		},
		tangent = {
			count = 738960,
			numComp = 4,
			offset = 916932,
		},
		uv0 = {
			count = 153792,
			numComp = 2,
			offset = 208920,
		},
	},
}
end
