function data()
return {
	subMeshes = {
		{
			indices = {
				normal = {
					count = 273048,
					offset = 2993340,
				},
				position = {
					count = 273048,
					offset = 2447244,
				},
				tangent = {
					count = 273048,
					offset = 3266388,
				},
				uv0 = {
					count = 273048,
					offset = 2720292,
				},
			},
		},
	},
	vertexAttr = {
		normal = {
			count = 819144,
			numComp = 3,
			offset = 535908,
		},
		position = {
			count = 310092,
			numComp = 3,
			offset = 0,
		},
		tangent = {
			count = 1092192,
			numComp = 4,
			offset = 1355052,
		},
		uv0 = {
			count = 225816,
			numComp = 2,
			offset = 310092,
		},
	},
}
end
