function data()
return { 
		subMeshes = {
			{ 
				indices = { 
					normal = { 
						count = 418080,
						offset = 4300016,
					},
					position = { 
						count = 418080,
						offset = 3463856,
					},
					tangent = { 
						count = 418080,
						offset = 4718096,
					},
					uv0 = { 
						count = 418080,
						offset = 3881936,
					},
				},
			},
		},
		vertexAttr = { 
			normal = { 
				count = 1254240,
				numComp = 3,
				offset = 537296,
			},
			position = { 
				count = 312624,
				numComp = 3,
				offset = 0,
			},
			tangent = { 
				count = 1672320,
				numComp = 4,
				offset = 1791536,
			},
			uv0 = { 
				count = 224672,
				numComp = 2,
				offset = 312624,
			},
		},
	}
end