function data()
return { 
		subMeshes = {
			{ 
				indices = { 
					normal = { 
						count = 25500,
						offset = 285440,
					},
					position = { 
						count = 25500,
						offset = 234440,
					},
					tangent = { 
						count = 25500,
						offset = 310940,
					},
					uv0 = { 
						count = 25500,
						offset = 259940,
					},
				},
			},
		},
		vertexAttr = { 
			normal = { 
				count = 76500,
				numComp = 3,
				offset = 55940,
			},
			position = { 
				count = 30108,
				numComp = 3,
				offset = 0,
			},
			tangent = { 
				count = 102000,
				numComp = 4,
				offset = 132440,
			},
			uv0 = { 
				count = 25832,
				numComp = 2,
				offset = 30108,
			},
		},
	}
end