function data()
return { 
		subMeshes = {
			{ 
				indices = { 
					normal = { 
						count = 3672,
						offset = 43048,
					},
					position = { 
						count = 3672,
						offset = 35704,
					},
					tangent = { 
						count = 3672,
						offset = 46720,
					},
					uv0 = { 
						count = 3672,
						offset = 39376,
					},
				},
			},
		},
		vertexAttr = { 
			normal = { 
				count = 11016,
				numComp = 3,
				offset = 10000,
			},
			position = { 
				count = 6000,
				numComp = 3,
				offset = 0,
			},
			tangent = { 
				count = 14688,
				numComp = 4,
				offset = 21016,
			},
			uv0 = { 
				count = 4000,
				numComp = 2,
				offset = 6000,
			},
		},
	}
end